HIERARCHY
ROOT Hips
{
	OFFSET 0.000000 97.167313 0.000000
	CHANNELS 6 Xposition Yposition Zposition Xrotation Yrotation Zrotation
	JOINT Spine
	{
		OFFSET 0.000000 13.784798 0.064400
		CHANNELS 3 Xrotation Yrotation Zrotation
		JOINT Spine1
		{
			OFFSET 0.000000 12.037903 0.404700
			CHANNELS 3 Xrotation Yrotation Zrotation
			JOINT Spine2
			{
				OFFSET 0.000000 17.795601 0.420200
				CHANNELS 3 Xrotation Yrotation Zrotation
				JOINT Neck
				{
					OFFSET 0.000000 39.131302 11.954600
					CHANNELS 3 Xrotation Yrotation Zrotation
					JOINT Head
					{
						OFFSET 0.000000 14.456192 15.627699
						CHANNELS 3 Xrotation Yrotation Zrotation
						JOINT HeadTop_End
						{
							OFFSET 0.000000 15.703506 7.603401
							CHANNELS 3 Xrotation Yrotation Zrotation
							End Site
							{
								OFFSET 0.000000 17.447403 0.000000
							}
						}
					}
				}
				JOINT LeftShoulder
				{
					OFFSET 17.399500 24.608795 1.168800
					CHANNELS 3 Xrotation Yrotation Zrotation
					JOINT LeftArm
					{
						OFFSET 18.980635 5.765305 1.818600
						CHANNELS 3 Xrotation Yrotation Zrotation
						JOINT LeftForeArm
						{
							OFFSET 49.290169 0.000000 0.000000
							CHANNELS 3 Xrotation Yrotation Zrotation
							JOINT LeftHand
							{
								OFFSET 31.562012 0.000000 0.000000
								CHANNELS 3 Xrotation Yrotation Zrotation
								JOINT LeftHandThumb1
								{
									OFFSET 6.133995 -4.388519 7.076070
									CHANNELS 3 Xrotation Yrotation Zrotation
									JOINT LeftHandThumb2
									{
										OFFSET 6.037666 -3.485840 3.485847
										CHANNELS 3 Xrotation Yrotation Zrotation
										JOINT LeftHandThumb3
										{
											OFFSET 6.496506 -3.750763 3.750761
											CHANNELS 3 Xrotation Yrotation Zrotation
											JOINT LeftHandThumb4
											{
												OFFSET 5.616882 -3.242905 3.242910
												CHANNELS 3 Xrotation Yrotation Zrotation
												End Site
												{
													OFFSET -1.254608 7.132141 0.375429
												}
											}
										}
									}
								}
								JOINT LeftHandPinky1
								{
									OFFSET 18.920792 -0.453171 -11.426712
									CHANNELS 3 Xrotation Yrotation Zrotation
									JOINT LeftHandPinky2
									{
										OFFSET 4.919586 0.000000 0.000000
										CHANNELS 3 Xrotation Yrotation Zrotation
										JOINT LeftHandPinky3
										{
											OFFSET 5.233047 0.000000 0.000000
											CHANNELS 3 Xrotation Yrotation Zrotation
											JOINT LeftHandPinky4
											{
												OFFSET 5.571716 0.000000 0.000000
												CHANNELS 3 Xrotation Yrotation Zrotation
												End Site
												{
													OFFSET -3.459808 4.342407 -0.466164
												}
											}
										}
									}
								}
								JOINT LeftHandRing1
								{
									OFFSET 22.726120 -0.094986 -6.500475
									CHANNELS 3 Xrotation Yrotation Zrotation
									JOINT LeftHandRing2
									{
										OFFSET 6.408615 0.000000 0.000000
										CHANNELS 3 Xrotation Yrotation Zrotation
										JOINT LeftHandRing3
										{
											OFFSET 6.150223 0.000000 0.000000
											CHANNELS 3 Xrotation Yrotation Zrotation
											JOINT LeftHandRing4
											{
												OFFSET 6.145386 0.000000 0.000000
												CHANNELS 3 Xrotation Yrotation Zrotation
												End Site
												{
													OFFSET -3.671402 4.923981 -0.202372
												}
											}
										}
									}
								}
								JOINT LeftHandMiddle1
								{
									OFFSET 23.373947 0.000000 0.000001
									CHANNELS 3 Xrotation Yrotation Zrotation
									JOINT LeftHandMiddle2
									{
										OFFSET 6.996567 0.000000 0.000000
										CHANNELS 3 Xrotation Yrotation Zrotation
										JOINT LeftHandMiddle3
										{
											OFFSET 7.015945 0.000000 0.000000
											CHANNELS 3 Xrotation Yrotation Zrotation
											JOINT LeftHandMiddle4
											{
												OFFSET 7.721573 0.000000 0.000000
												CHANNELS 3 Xrotation Yrotation Zrotation
												End Site
												{
													OFFSET -4.651108 6.158463 0.251582
												}
											}
										}
									}
								}
								JOINT LeftHandIndex1
								{
									OFFSET 21.310577 -0.490082 6.209344
									CHANNELS 3 Xrotation Yrotation Zrotation
									JOINT LeftHandIndex2
									{
										OFFSET 7.536453 0.000000 0.000000
										CHANNELS 3 Xrotation Yrotation Zrotation
										JOINT LeftHandIndex3
										{
											OFFSET 7.512344 0.000000 0.000000
											CHANNELS 3 Xrotation Yrotation Zrotation
											JOINT LeftHandIndex4
											{
												OFFSET 10.212402 0.000000 0.000001
												CHANNELS 3 Xrotation Yrotation Zrotation
												End Site
												{
													OFFSET -5.180801 8.690506 1.388433
												}
											}
										}
									}
								}
							}
						}
					}
				}
				JOINT RightShoulder
				{
					OFFSET -17.399500 24.608795 1.168800
					CHANNELS 3 Xrotation Yrotation Zrotation
					JOINT RightArm
					{
						OFFSET -18.980635 5.765305 1.818600
						CHANNELS 3 Xrotation Yrotation Zrotation
						JOINT RightForeArm
						{
							OFFSET -49.290169 0.000000 0.000000
							CHANNELS 3 Xrotation Yrotation Zrotation
							JOINT RightHand
							{
								OFFSET -31.562012 0.000000 0.000000
								CHANNELS 3 Xrotation Yrotation Zrotation
								JOINT RightHandThumb1
								{
									OFFSET -6.133995 -4.388519 7.076070
									CHANNELS 3 Xrotation Yrotation Zrotation
									JOINT RightHandThumb2
									{
										OFFSET -6.037666 -3.485840 3.485847
										CHANNELS 3 Xrotation Yrotation Zrotation
										JOINT RightHandThumb3
										{
											OFFSET -6.496506 -3.750763 3.750761
											CHANNELS 3 Xrotation Yrotation Zrotation
											JOINT RightHandThumb4
											{
												OFFSET -5.616882 -3.242905 3.242910
												CHANNELS 3 Xrotation Yrotation Zrotation
												End Site
												{
													OFFSET 1.254608 7.132141 0.375429
												}
											}
										}
									}
								}
								JOINT RightHandIndex1
								{
									OFFSET -21.310577 -0.490082 6.209344
									CHANNELS 3 Xrotation Yrotation Zrotation
									JOINT RightHandIndex2
									{
										OFFSET -7.536453 0.000000 0.000000
										CHANNELS 3 Xrotation Yrotation Zrotation
										JOINT RightHandIndex3
										{
											OFFSET -7.512344 0.000000 0.000000
											CHANNELS 3 Xrotation Yrotation Zrotation
											JOINT RightHandIndex4
											{
												OFFSET -10.212402 0.000000 0.000001
												CHANNELS 3 Xrotation Yrotation Zrotation
												End Site
												{
													OFFSET 5.180801 8.690506 1.388433
												}
											}
										}
									}
								}
								JOINT RightHandMiddle1
								{
									OFFSET -23.373947 0.000000 0.000001
									CHANNELS 3 Xrotation Yrotation Zrotation
									JOINT RightHandMiddle2
									{
										OFFSET -6.996567 0.000000 0.000000
										CHANNELS 3 Xrotation Yrotation Zrotation
										JOINT RightHandMiddle3
										{
											OFFSET -7.015945 0.000000 0.000000
											CHANNELS 3 Xrotation Yrotation Zrotation
											JOINT RightHandMiddle4
											{
												OFFSET -7.721573 0.000000 0.000000
												CHANNELS 3 Xrotation Yrotation Zrotation
												End Site
												{
													OFFSET 4.651108 6.158463 0.251582
												}
											}
										}
									}
								}
								JOINT RightHandRing1
								{
									OFFSET -22.726120 -0.094986 -6.500475
									CHANNELS 3 Xrotation Yrotation Zrotation
									JOINT RightHandRing2
									{
										OFFSET -6.408615 0.000000 0.000000
										CHANNELS 3 Xrotation Yrotation Zrotation
										JOINT RightHandRing3
										{
											OFFSET -6.150223 0.000000 0.000000
											CHANNELS 3 Xrotation Yrotation Zrotation
											JOINT RightHandRing4
											{
												OFFSET -6.145386 0.000000 0.000000
												CHANNELS 3 Xrotation Yrotation Zrotation
												End Site
												{
													OFFSET 3.671402 4.923981 -0.202372
												}
											}
										}
									}
								}
								JOINT RightHandPinky1
								{
									OFFSET -18.920792 -0.453171 -11.426712
									CHANNELS 3 Xrotation Yrotation Zrotation
									JOINT RightHandPinky2
									{
										OFFSET -4.919586 0.000000 0.000000
										CHANNELS 3 Xrotation Yrotation Zrotation
										JOINT RightHandPinky3
										{
											OFFSET -5.233047 0.000000 0.000000
											CHANNELS 3 Xrotation Yrotation Zrotation
											JOINT RightHandPinky4
											{
												OFFSET -5.571716 0.000000 0.000000
												CHANNELS 3 Xrotation Yrotation Zrotation
												End Site
												{
													OFFSET 3.459808 4.342407 -0.466164
												}
											}
										}
									}
								}
							}
						}
					}
				}
			}
		}
	}
	JOINT LeftUpLeg
	{
		OFFSET 19.899099 -7.885101 -3.429500
		CHANNELS 3 Xrotation Yrotation Zrotation
		JOINT LeftLeg
		{
			OFFSET 1.745560 -36.997807 10.304700
			CHANNELS 3 Xrotation Yrotation Zrotation
			JOINT LeftFoot
			{
				OFFSET -1.745558 -29.803308 -13.615400
				CHANNELS 3 Xrotation Yrotation Zrotation
				JOINT LeftToeBase
				{
					OFFSET 1.181900 -18.539904 15.226099
					CHANNELS 3 Xrotation Yrotation Zrotation
					JOINT LeftToe_End
					{
						OFFSET -0.863701 1.402801 16.534700
						CHANNELS 3 Xrotation Yrotation Zrotation
						End Site
						{
							OFFSET 0.000000 16.616566 0.000000
						}
					}
				}
			}
		}
	}
	JOINT RightUpLeg
	{
		OFFSET -19.899099 -7.885101 -3.429500
		CHANNELS 3 Xrotation Yrotation Zrotation
		JOINT RightLeg
		{
			OFFSET -1.745560 -36.997807 10.304700
			CHANNELS 3 Xrotation Yrotation Zrotation
			JOINT RightFoot
			{
				OFFSET 1.745558 -29.803308 -13.615400
				CHANNELS 3 Xrotation Yrotation Zrotation
				JOINT RightToeBase
				{
					OFFSET -1.181900 -18.539904 15.226099
					CHANNELS 3 Xrotation Yrotation Zrotation
					JOINT RightToe_End
					{
						OFFSET 0.863701 1.402801 16.534700
						CHANNELS 3 Xrotation Yrotation Zrotation
						End Site
						{
							OFFSET 0.000000 16.616566 0.000000
						}
					}
				}
			}
		}
	}
}
MOTION
Frames: 4
Frame Time: 0.033333
-2.276739 83.973976 -2.750001 3.142911 -6.648011 5.851010 0.779066 1.717725 -8.563425 -3.831576 0.443897 1.309046 -3.848290 -0.002995 -1.698048 6.347037 0.385719 -0.389409 -8.239272 4.142102 7.777965 0.000000 -0.000000 -0.000000 5.602907 -7.275196 -15.113861 23.835793 -39.623471 -50.368520 -0.000006 -11.466385 -0.000014 -41.915887 -5.149534 4.640824 -18.433945 -2.599617 -13.701016 8.075345 29.730280 2.751823 -14.449991 26.614017 20.547106 0.000000 -0.000002 0.000002 -23.214727 -10.234566 -26.605784 0.892742 3.110329 -32.022714 0.993606 3.265823 -33.836204 -0.000001 -0.000001 -0.000004 -6.034762 -7.556313 -29.060027 1.261479 3.633029 -38.286144 0.540369 2.459414 -24.779764 -0.000004 -0.000001 0.000002 2.227432 7.644960 -30.097044 1.084667 3.397501 -35.402974 0.717767 2.811654 -28.636447 -0.000002 -0.000001 0.000001 6.333614 16.376017 -10.936875 0.727231 2.828884 -28.828743 0.473357 2.308848 -23.169006 0.000001 0.000003 -0.000003 15.682857 10.041876 18.095138 8.408969 19.901628 44.932727 -0.000002 13.335593 -0.000007 -6.427932 9.783836 10.116267 -18.083288 1.424672 9.803297 8.191689 -31.584458 -3.345448 -5.913339 -32.734180 -19.924958 0.000001 0.000003 -0.000001 4.945121 -10.049067 25.611915 0.580062 -2.252771 28.875099 0.377639 -1.838777 23.209394 -0.000001 -0.000001 -0.000001 -4.391696 1.876513 38.001445 1.108839 -3.018306 40.335952 1.116797 -3.027646 40.487029 -0.000000 -0.000001 -0.000004 -10.930328 12.472640 35.544639 1.267067 -3.195043 43.255100 0.681681 -2.427782 31.363412 -0.000001 -0.000000 -0.000003 -27.056947 12.866700 31.869512 0.847155 -2.680217 35.075651 0.500228 -2.101635 26.774198 0.000000 0.000001 0.000004 -12.386718 12.528989 -5.117322 35.694500 1.247835 -0.888529 -25.461422 -2.243313 3.238588 0.683781 0.017953 -1.289591 0.000000 -0.000000 0.000000 -28.022099 -25.565424 -37.823142 39.333779 1.741762 2.851973 -12.812725 -23.185680 17.692847 3.387630 0.000008 0.000077 -0.000000 -0.000002 -0.000000 
-2.381314 84.039223 -2.666908 2.696278 -6.295530 5.394838 1.835036 1.681168 -8.353150 -3.734054 0.440282 1.393008 -3.749610 -0.007360 -1.614882 6.196826 -0.352733 -0.339457 -8.786279 0.590620 6.848941 0.000000 0.000000 0.000000 5.652896 -7.974709 -14.394709 13.597741 -32.471037 -50.787545 -0.000003 -11.849391 -0.000003 -36.866479 -5.256537 -2.433893 -16.876605 -2.772524 -13.256568 9.347916 29.496093 1.719272 -12.511198 26.072309 18.943955 -0.000000 -0.000002 -0.000001 -23.560229 -9.778735 -27.789569 0.863870 3.063769 -31.486796 0.832886 3.012657 -30.902047 -0.000001 0.000000 -0.000006 -6.025398 -7.296202 -29.505266 1.348906 3.740885 -39.645403 0.488795 2.344597 -23.549579 0.000002 0.000000 0.000005 2.111246 7.407460 -30.570667 1.047270 3.344356 -34.767012 0.643037 2.670400 -27.073726 0.000002 0.000002 0.000006 6.038508 16.217270 -11.472773 0.667269 2.717242 -27.589410 0.374472 2.062711 -20.576756 -0.000001 0.000001 0.000001 14.548091 10.237692 18.928976 7.885206 15.937550 43.160935 0.000005 15.325973 0.000002 -8.285838 10.207334 8.799005 -16.672890 1.813602 9.898826 8.279988 -30.037744 -3.762122 -1.197165 -41.162610 -16.678369 0.000001 0.000001 -0.000000 5.551768 -11.761500 25.884544 0.541518 -2.181463 27.878711 0.377324 -1.838051 23.199842 0.000000 -0.000001 -0.000001 -2.542177 -0.121565 35.552729 1.073011 -2.975659 39.650908 1.090716 -2.996881 39.990853 0.000002 0.000000 -0.000004 -7.614148 9.537608 31.292792 1.272258 -3.200536 43.348103 0.658844 -2.389959 30.820102 -0.000003 0.000004 -0.000005 -24.595137 11.509819 28.457568 0.842642 -2.673780 34.978775 0.518353 -2.137142 27.264227 -0.000003 -0.000000 0.000002 -12.175585 12.202820 -4.552522 35.993990 1.271889 -0.900542 -25.626294 -2.441810 3.061710 0.692776 0.017985 -1.306574 0.000000 -0.000000 0.000000 -27.136628 -26.536434 -37.458745 38.915498 1.752953 2.832231 -12.947081 -23.076928 17.651490 3.382160 -0.000010 0.000077 -0.000000 0.000001 -0.000000 
-2.527547 84.111267 -2.665961 2.210642 -5.717189 5.023937 3.416858 1.545099 -8.186269 -3.542085 0.408722 1.483639 -3.556416 -0.040726 -1.525094 5.935396 -1.174828 -0.385999 -10.433993 -2.645199 5.119994 -0.000000 -0.000000 -0.000000 5.652255 -9.444269 -13.237315 3.654853 -24.856534 -49.544427 0.000001 -14.393473 0.000004 -31.084106 -5.395882 -10.977843 -15.124779 -2.951108 -12.772882 10.729028 29.129234 0.594005 -10.961795 24.741664 17.536601 -0.000000 0.000005 0.000001 -23.213685 -8.801918 -27.982167 0.850398 3.041696 -31.233755 0.679035 2.739592 -27.836380 0.000002 0.000002 0.000001 -5.671740 -6.474059 -29.788255 1.496056 3.911302 -41.850434 0.436206 2.220112 -22.228933 -0.000000 0.000001 -0.000000 2.447187 7.885867 -31.404793 1.024657 3.311597 -34.377503 0.560066 2.501619 -25.235042 -0.000000 -0.000004 0.000004 5.983390 17.103878 -12.401841 0.609815 2.604438 -26.351601 0.267424 1.751472 -17.361207 0.000000 0.000005 0.000002 13.220579 10.586640 19.627071 10.073963 11.346842 40.710724 0.000010 21.801750 -0.000005 -10.306463 8.412590 7.745937 -15.093673 2.262710 9.999100 5.353702 -23.056654 -5.805263 0.654994 -45.299396 -18.093286 0.000001 0.000003 0.000003 6.948874 -12.885715 28.659382 0.495907 -2.093035 26.655903 0.458053 -2.015905 25.600063 -0.000001 -0.000002 0.000005 -1.070418 -2.231822 35.806604 1.159950 -3.077412 41.297526 1.182241 -3.102565 41.710958 0.000001 -0.000000 -0.000004 -4.931188 6.389424 27.554084 1.375261 -3.306096 45.163011 0.688299 -2.438586 31.519253 -0.000001 -0.000002 -0.000005 -23.416848 10.239860 27.162428 0.916519 -2.776276 36.532817 0.652143 -2.378708 30.659165 -0.000000 0.000003 -0.000001 -12.069544 11.649422 -4.072528 36.255754 1.289834 -0.910248 -25.604791 -2.601584 2.865188 0.700504 0.018010 -1.321170 0.000000 0.000001 -0.000000 -26.285696 -27.630941 -37.228995 38.578353 1.776993 2.827368 -13.173199 -23.023342 17.574241 3.376051 -0.000022 0.000090 0.000000 0.000000 -0.000000 
-2.720933 84.082069 -2.890100 2.184991 -5.023080 4.888329 5.410348 0.992538 -8.090789 -3.402781 0.262944 1.521775 -3.416959 -0.187679 -1.484017 5.610885 -1.802603 -0.569571 -12.922964 -3.407730 3.081111 0.000000 -0.000000 -0.000000 5.644335 -11.679670 -11.141964 -3.348167 -18.318187 -47.090336 0.000013 -20.573829 -0.000003 -27.069493 -4.628327 -17.133924 -13.249371 -3.125032 -12.274419 11.508638 27.558347 -0.201389 -8.801252 24.018002 15.740308 -0.000000 0.000001 -0.000001 -20.293752 -6.836493 -27.259355 0.748281 2.866764 -29.252519 0.545998 2.471570 -24.910772 0.000000 -0.000002 -0.000001 -4.744605 -5.625293 -27.781147 1.507746 3.924275 -42.021369 0.385545 2.091968 -20.882443 0.000001 0.000003 0.000003 2.827431 8.711063 -29.761433 0.987728 3.257043 -33.732757 0.468570 2.297663 -23.050140 -0.000000 -0.000002 0.000009 5.736184 18.549158 -12.374641 0.547143 2.474034 -24.937294 0.180593 1.444811 -14.248289 -0.000000 0.000001 -0.000001 11.878383 10.652480 19.981223 15.187018 7.696384 37.636152 0.000010 32.444041 -0.000001 -11.831954 5.793903 6.735148 -13.411018 2.757047 10.097327 1.699123 -13.721092 -7.480560 2.805637 -48.143517 -19.064134 -0.000000 0.000003 0.000002 9.056112 -13.109313 34.153459 0.565367 -2.225933 28.499103 0.586715 -2.264781 29.044068 -0.000002 0.000002 0.000002 0.520997 -4.522349 39.275678 1.374687 -3.305523 45.153192 1.338444 -3.269135 44.521116 -0.000002 -0.000000 -0.000006 -2.846564 3.032032 24.906510 1.626268 -3.537589 49.366514 0.738521 -2.518594 32.680666 -0.000004 0.000001 -0.000005 -23.182640 8.740112 28.154794 1.098684 -3.006326 40.142948 0.896631 -2.749285 36.120332 0.000001 0.000001 0.000002 -12.781447 10.791968 -3.822144 36.637626 1.299622 -0.925042 -25.333423 -2.448178 2.723011 0.707702 0.018008 -1.334809 0.000000 0.000000 -0.000000 -26.313300 -28.428992 -37.209320 38.718444 1.795117 2.853490 -13.550426 -23.064432 17.340336 3.373317 0.000022 0.000091 -0.000000 -0.000002 0.000000 
